<?xml version="1.0" encoding="UTF-8"?>
<!DOCTYPE svg PUBLIC "-//W3C//DTD SVG 1.1//EN" "http://www.w3.org/Graphics/SVG/1.1/DTD/svg11.dtd">
<svg xmlns="http://www.w3.org/2000/svg" version="1.1" width="1280px" height="1280px" style="shape-rendering:geometricPrecision; text-rendering:geometricPrecision; image-rendering:optimizeQuality; fill-rule:evenodd; clip-rule:evenodd" xmlns:xlink="http://www.w3.org/1999/xlink">
<g><path style="opacity:1" fill="#fefefe" d="M -0.5,-0.5 C 426.167,-0.5 852.833,-0.5 1279.5,-0.5C 1279.5,426.167 1279.5,852.833 1279.5,1279.5C 852.833,1279.5 426.167,1279.5 -0.5,1279.5C -0.5,852.833 -0.5,426.167 -0.5,-0.5 Z"/></g>
<g><path style="opacity:1" fill="#465c7d" d="M 331.5,429.5 C 328.512,428.839 325.512,428.172 322.5,427.5C 319.933,428.664 317.266,429.33 314.5,429.5C 320.133,424.268 325.799,424.268 331.5,429.5 Z"/></g>
<g><path style="opacity:1" fill="#71829e" d="M 418.5,473.5 C 423.478,474.369 427.811,476.369 431.5,479.5C 430.127,479.657 428.793,479.49 427.5,479C 424.449,477.062 421.449,475.228 418.5,473.5 Z"/></g>
<g><path style="opacity:1" fill="#3c5078" d="M 505.5,517.5 C 510.146,518.908 514.312,521.241 518,524.5C 518.667,601.5 518.667,678.5 518,755.5C 515.872,757.807 513.372,759.474 510.5,760.5C 511.848,758.641 513.015,756.641 514,754.5C 515.011,753.663 516.178,753.33 517.5,753.5C 517.667,677.499 517.5,601.499 517,525.5C 514.131,523.15 510.965,521.484 507.5,520.5C 507.649,521.552 507.483,522.552 507,523.5C 504.853,522.887 502.686,522.221 500.5,521.5C 502.045,520.548 503.712,520.215 505.5,520.5C 505.5,519.5 505.5,518.5 505.5,517.5 Z"/></g>
<g><path style="opacity:1" fill="#2d368b" d="M 697.5,534.5 C 709.222,535.048 714.055,541.048 712,552.5C 705.741,561.878 698.407,562.878 690,555.5C 685.257,545.689 687.757,538.689 697.5,534.5 Z"/></g>
<g><path style="opacity:1" fill="#7895b6" d="M 134.5,520.5 C 132.645,522.033 130.812,523.7 129,525.5C 128.5,602.166 128.333,678.833 128.5,755.5C 127.334,678.668 127.168,601.668 128,524.5C 129.638,522.266 131.805,520.933 134.5,520.5 Z"/></g>
<g><path style="opacity:1" fill="#6f72ae" d="M 632.5,546.5 C 626.804,546.447 621.138,546.78 615.5,547.5C 618.718,546.046 622.218,545.379 626,545.5C 628.361,545.504 630.527,545.837 632.5,546.5 Z"/></g>
<g><path style="opacity:1" fill="#2a348b" d="M 632.5,546.5 C 647.183,546.664 657.85,553.164 664.5,566C 658.112,568.687 651.612,571.187 645,573.5C 635.478,562.269 624.478,560.603 612,568.5C 609.494,573.62 610.661,577.786 615.5,581C 623.937,583.942 632.603,585.942 641.5,587C 647.989,589.414 654.322,592.081 660.5,595C 668.475,602.637 670.642,611.804 667,622.5C 661.497,634.156 652.33,641.156 639.5,643.5C 633.19,644.19 626.857,644.524 620.5,644.5C 605.232,643.027 594.232,635.36 587.5,621.5C 594.313,618.379 601.313,615.712 608.5,613.5C 610.646,620.971 615.646,625.305 623.5,626.5C 625.134,627.161 626.967,627.494 629,627.5C 632.15,627.64 634.983,626.973 637.5,625.5C 644.421,623.741 646.921,619.407 645,612.5C 643.833,611.333 642.667,610.167 641.5,609C 629.353,605.025 617.019,601.692 604.5,599C 587.758,590.187 583.591,577.354 592,560.5C 598.308,553.348 606.141,549.014 615.5,547.5C 621.138,546.78 626.804,546.447 632.5,546.5 Z"/></g>
<g><path style="opacity:1" fill="#28338b" d="M 959.5,623.5 C 961.297,624.73 963.297,625.396 965.5,625.5C 967.948,626.473 970.615,626.806 973.5,626.5C 973.5,631.833 973.5,637.167 973.5,642.5C 966.167,642.5 958.833,642.5 951.5,642.5C 942.832,642.357 938.499,638.024 938.5,629.5C 938.5,602.5 938.5,575.5 938.5,548.5C 944.833,548.5 951.167,548.5 957.5,548.5C 956.843,573.856 957.509,598.856 959.5,623.5 Z"/></g>
<g><path style="opacity:1" fill="#2d3577" d="M 959.5,623.5 C 957.509,598.856 956.843,573.856 957.5,548.5C 951.167,548.5 944.833,548.5 938.5,548.5C 938.5,575.5 938.5,602.5 938.5,629.5C 937.502,602.338 937.169,575.005 937.5,547.5C 944.5,547.5 951.5,547.5 958.5,547.5C 958.195,572.866 958.528,598.199 959.5,623.5 Z"/></g>
<g><path style="opacity:1" fill="#28348b" d="M 710.5,572.5 C 710.5,595.833 710.5,619.167 710.5,642.5C 703.5,642.5 696.5,642.5 689.5,642.5C 689.5,624.5 689.5,606.5 689.5,588.5C 685.167,588.5 680.833,588.5 676.5,588.5C 676.5,583.167 676.5,577.833 676.5,572.5C 687.833,572.5 699.167,572.5 710.5,572.5 Z"/></g>
<g><path style="opacity:1" fill="#575e9d" d="M 710.5,572.5 C 710.833,572.5 711.167,572.5 711.5,572.5C 711.5,596.167 711.5,619.833 711.5,643.5C 704.167,643.5 696.833,643.5 689.5,643.5C 689.5,643.167 689.5,642.833 689.5,642.5C 696.5,642.5 703.5,642.5 710.5,642.5C 710.5,619.167 710.5,595.833 710.5,572.5 Z"/></g>
<g><path style="opacity:1" fill="#2a348a" d="M 924.5,592.5 C 924.676,595.727 925.343,598.727 926.5,601.5C 927.335,612.491 925.168,622.824 920,632.5C 915.916,637.783 910.749,641.45 904.5,643.5C 898.827,644.752 893.16,644.752 887.5,643.5C 881.468,642.234 876.968,638.901 874,633.5C 873.5,644.161 873.333,654.828 873.5,665.5C 866.5,665.5 859.5,665.5 852.5,665.5C 852.5,634.5 852.5,603.5 852.5,572.5C 858.5,572.5 864.5,572.5 870.5,572.5C 871.179,575.707 872.346,578.707 874,581.5C 877.515,575.652 882.681,572.152 889.5,571C 906.914,568.929 918.581,576.096 924.5,592.5 Z"/></g>
<g><path style="opacity:1" fill="#29338b" d="M 836.5,591.5 C 836.5,608.5 836.5,625.5 836.5,642.5C 829.833,642.5 823.167,642.5 816.5,642.5C 816.829,628.656 816.496,614.99 815.5,601.5C 816.337,591.172 811.67,586.338 801.5,587C 798.798,588.012 796.465,589.512 794.5,591.5C 793.057,592.335 792.057,593.668 791.5,595.5C 790.501,611.152 790.167,626.819 790.5,642.5C 784.132,642.83 777.798,642.496 771.5,641.5C 771.709,640.914 772.043,640.414 772.5,640C 771.844,629.069 771.177,618.235 770.5,607.5C 771.099,601.135 769.932,595.135 767,589.5C 753.561,583.989 746.728,588.656 746.5,603.5C 745.505,616.323 745.171,629.323 745.5,642.5C 738.833,642.5 732.167,642.5 725.5,642.5C 725.5,619.167 725.5,595.833 725.5,572.5C 731.5,572.5 737.5,572.5 743.5,572.5C 743.713,575.475 744.713,578.142 746.5,580.5C 758.179,568.939 771.179,567.439 785.5,576C 786.667,577.833 787.833,579.667 789,581.5C 800.287,569.812 813.454,567.312 828.5,574C 833.379,578.796 836.046,584.63 836.5,591.5 Z"/></g>
<g><path style="opacity:1" fill="#7f84ba" d="M 870.5,572.5 C 864.5,572.5 858.5,572.5 852.5,572.5C 852.5,603.5 852.5,634.5 852.5,665.5C 859.5,665.5 866.5,665.5 873.5,665.5C 866.352,666.492 859.019,666.825 851.5,666.5C 851.5,634.833 851.5,603.167 851.5,571.5C 858.022,571.177 864.355,571.51 870.5,572.5 Z"/></g>
<g><path style="opacity:1" fill="#fafbfc" d="M 884.5,586.5 C 893.825,586.323 899.991,590.656 903,599.5C 903.829,606.234 903.496,612.901 902,619.5C 894.434,629.99 885.934,630.99 876.5,622.5C 872.245,614.192 871.412,605.525 874,596.5C 876.081,591.584 879.581,588.25 884.5,586.5 Z"/></g>
<g><path style="opacity:1" fill="#b7bbe1" d="M 711.5,572.5 C 711.167,572.5 710.833,572.5 710.5,572.5C 699.167,572.5 687.833,572.5 676.5,572.5C 676.5,577.833 676.5,583.167 676.5,588.5C 680.833,588.5 685.167,588.5 689.5,588.5C 689.5,606.5 689.5,624.5 689.5,642.5C 689.5,642.833 689.5,643.167 689.5,643.5C 688.503,625.674 688.17,607.674 688.5,589.5C 684.167,589.5 679.833,589.5 675.5,589.5C 675.5,583.5 675.5,577.5 675.5,571.5C 687.678,571.172 699.678,571.505 711.5,572.5 Z"/></g>
<g><path style="opacity:1" fill="#b0b2d9" d="M 924.5,592.5 C 926.118,595.171 926.785,598.171 926.5,601.5C 925.343,598.727 924.676,595.727 924.5,592.5 Z"/></g>
<g><path style="opacity:1" fill="#343b80" d="M 794.5,591.5 C 793.673,594.132 792.84,596.798 792,599.5C 791.5,614.163 791.333,628.83 791.5,643.5C 784.5,643.5 777.5,643.5 770.5,643.5C 770.5,631.5 770.5,619.5 770.5,607.5C 771.177,618.235 771.844,629.069 772.5,640C 772.043,640.414 771.709,640.914 771.5,641.5C 777.798,642.496 784.132,642.83 790.5,642.5C 790.167,626.819 790.501,611.152 791.5,595.5C 792.057,593.668 793.057,592.335 794.5,591.5 Z"/></g>
<g><path style="opacity:1" fill="#4e5698" d="M 836.5,591.5 C 837.497,608.659 837.83,625.992 837.5,643.5C 830.167,643.5 822.833,643.5 815.5,643.5C 815.5,629.5 815.5,615.5 815.5,601.5C 816.496,614.99 816.829,628.656 816.5,642.5C 823.167,642.5 829.833,642.5 836.5,642.5C 836.5,625.5 836.5,608.5 836.5,591.5 Z"/></g>
<g><path style="opacity:1" fill="#2d368b" d="M 1051.5,597.5 C 1052.25,602.463 1052.59,607.463 1052.5,612.5C 1035.34,613.497 1018.01,613.83 1000.5,613.5C 1001.01,618.848 1003.34,623.181 1007.5,626.5C 1008.06,627.79 1009.06,628.623 1010.5,629C 1007.77,629.182 1005.11,629.682 1002.5,630.5C 1001.75,631.736 1001.42,633.07 1001.5,634.5C 999.086,632.776 996.42,631.442 993.5,630.5C 993.241,633.48 994.574,635.313 997.5,636C 995.527,636.495 993.527,636.662 991.5,636.5C 980.059,626.004 975.892,613.004 979,597.5C 989.232,573.964 1006.73,565.798 1031.5,573C 1042.04,578.04 1048.71,586.207 1051.5,597.5 Z"/></g>
<g><path style="opacity:1" fill="#c2c8ed" d="M 1031.5,594.5 C 1032.46,596.265 1032.79,598.265 1032.5,600.5C 1021.83,600.5 1011.17,600.5 1000.5,600.5C 1000.26,599.209 1000.6,598.209 1001.5,597.5C 1011.11,599.474 1021.11,600.141 1031.5,599.5C 1031.5,597.833 1031.5,596.167 1031.5,594.5 Z"/></g>
<g><path style="opacity:1" fill="#f9fbfb" d="M 1031.5,594.5 C 1031.5,596.167 1031.5,597.833 1031.5,599.5C 1021.11,600.141 1011.11,599.474 1001.5,597.5C 1002.43,592.391 1005.43,588.891 1010.5,587C 1016.99,585.62 1022.99,586.62 1028.5,590C 1029.88,591.271 1030.88,592.771 1031.5,594.5 Z"/></g>
<g><path style="opacity:1" fill="#585d92" d="M 743.5,572.5 C 737.5,572.5 731.5,572.5 725.5,572.5C 725.5,595.833 725.5,619.167 725.5,642.5C 732.167,642.5 738.833,642.5 745.5,642.5C 745.171,629.323 745.505,616.323 746.5,603.5C 746.5,616.833 746.5,630.167 746.5,643.5C 739.167,643.5 731.833,643.5 724.5,643.5C 724.5,619.5 724.5,595.5 724.5,571.5C 731.022,571.177 737.355,571.51 743.5,572.5 Z"/></g>
<g><path style="opacity:1" fill="#b6bae2" d="M 1051.5,597.5 C 1052.99,600.186 1053.66,603.186 1053.5,606.5C 1053.5,608.696 1053.16,610.696 1052.5,612.5C 1052.59,607.463 1052.25,602.463 1051.5,597.5 Z"/></g>
<g><path style="opacity:1" fill="#1b3d6e" d="M 331.5,429.5 C 340.814,433.299 349.814,437.799 358.5,443C 378.721,452.896 398.721,463.062 418.5,473.5C 421.449,475.228 424.449,477.062 427.5,479C 428.793,479.49 430.127,479.657 431.5,479.5C 456.48,491.656 481.146,504.323 505.5,517.5C 505.5,518.5 505.5,519.5 505.5,520.5C 503.712,520.215 502.045,520.548 500.5,521.5C 502.686,522.221 504.853,522.887 507,523.5C 507.483,522.552 507.649,521.552 507.5,520.5C 510.965,521.484 514.131,523.15 517,525.5C 517.5,601.499 517.667,677.499 517.5,753.5C 516.178,753.33 515.011,753.663 514,754.5C 513.015,756.641 511.848,758.641 510.5,760.5C 501.365,764.901 492.365,769.567 483.5,774.5C 481.421,774.971 479.421,775.637 477.5,776.5C 471.635,777.117 466.968,779.784 463.5,784.5C 418.11,808.195 372.443,831.362 326.5,854C 324.167,854.667 321.833,854.667 319.5,854C 291.986,840.077 264.653,825.91 237.5,811.5C 237.119,810.069 236.119,809.236 234.5,809C 234.833,808.667 235.167,808.333 235.5,808C 230.567,806.223 225.567,804.723 220.5,803.5C 191.584,789.042 162.584,774.542 133.5,760C 131.341,758.941 129.674,757.441 128.5,755.5C 128.333,678.833 128.5,602.166 129,525.5C 130.812,523.7 132.645,522.033 134.5,520.5C 194.133,489.14 254.133,458.806 314.5,429.5C 317.266,429.33 319.933,428.664 322.5,427.5C 325.512,428.172 328.512,428.839 331.5,429.5 Z"/></g>
<g><path style="opacity:1" fill="#5575b0" d="M 407.5,589.5 C 406.203,596.431 405.536,603.598 405.5,611C 405.5,618.008 405.834,624.842 406.5,631.5C 406.44,632.043 406.107,632.376 405.5,632.5C 405.157,618.475 404.157,604.809 402.5,591.5C 403.78,590.069 405.447,589.402 407.5,589.5 Z"/></g>
<g><path style="opacity:1" fill="#b2cffe" d="M 430.5,577.5 C 431.166,584.492 431.5,591.659 431.5,599C 431.497,606.533 430.831,613.699 429.5,620.5C 429.5,620.167 429.5,619.833 429.5,619.5C 430.496,605.677 430.829,591.677 430.5,577.5 Z"/></g>
<g><path style="opacity:1" fill="#27348b" d="M 429.5,619.5 C 429.5,619.833 429.5,620.167 429.5,620.5C 421.707,623.896 414.041,627.563 406.5,631.5C 405.834,624.842 405.5,618.008 405.5,611C 405.536,603.598 406.203,596.431 407.5,589.5C 414.6,586.451 421.6,583.118 428.5,579.5C 429.499,592.817 429.833,606.15 429.5,619.5 Z"/></g>
<g><path style="opacity:1" fill="#26507a" d="M 503.5,540.5 C 503.56,539.957 503.893,539.624 504.5,539.5C 504.833,574.333 505.167,609.167 505.5,644C 505.5,679.173 504.833,714.006 503.5,748.5C 503.5,748.167 503.5,747.833 503.5,747.5C 504.833,678.5 504.833,609.5 503.5,540.5 Z"/></g>
<g><path style="opacity:1" fill="#86b4d8" d="M 501.5,541.5 C 501.842,540.662 502.508,540.328 503.5,540.5C 504.833,609.5 504.833,678.5 503.5,747.5C 504.163,678.492 503.497,609.825 501.5,541.5 Z"/></g>
<g><path style="opacity:1" fill="#b1e8fd" d="M 501.5,541.5 C 503.497,609.825 504.163,678.492 503.5,747.5C 503.5,747.833 503.5,748.167 503.5,748.5C 446.147,777.176 388.814,805.843 331.5,834.5C 330.333,765.502 330.167,696.502 331,627.5C 354.747,615.377 378.58,603.377 402.5,591.5C 404.157,604.809 405.157,618.475 405.5,632.5C 406.107,632.376 406.44,632.043 406.5,631.5C 414.041,627.563 421.707,623.896 429.5,620.5C 430.831,613.699 431.497,606.533 431.5,599C 431.5,591.659 431.166,584.492 430.5,577.5C 453.904,565.297 477.57,553.297 501.5,541.5 Z"/></g>
<g><path style="opacity:1" fill="#fefefe" d="M 144.5,541.5 C 201.753,569.96 258.753,598.626 315.5,627.5C 315.833,696.669 315.499,765.669 314.5,834.5C 257.588,805.544 200.588,776.878 143.5,748.5C 143.5,748.167 143.5,747.833 143.5,747.5C 143.167,678.665 143.501,609.998 144.5,541.5 Z"/></g>
<g><path style="opacity:1" fill="#c5d6f0" d="M 142.5,540.5 C 143.492,540.328 144.158,540.662 144.5,541.5C 143.501,609.998 143.167,678.665 143.5,747.5C 142.501,678.669 142.167,609.669 142.5,540.5 Z"/></g>
<g><path style="opacity:1" fill="#2a348b" d="M 252.5,479.5 C 308.115,507.807 363.782,535.807 419.5,563.5C 419.5,564.5 419.5,565.5 419.5,566.5C 416.774,566.264 414.441,567.097 412.5,569C 411.663,570.011 411.33,571.178 411.5,572.5C 407.323,572.929 403.323,573.929 399.5,575.5C 399.719,576.675 399.386,577.675 398.5,578.5C 397.583,577.873 396.583,577.539 395.5,577.5C 339.097,549.131 282.763,520.464 226.5,491.5C 229.56,488.643 233.227,486.81 237.5,486C 241.184,480.819 246.184,478.653 252.5,479.5 Z"/></g>
<g><path style="opacity:1" fill="#fcfdfd" d="M 226.5,491.5 C 282.763,520.464 339.097,549.131 395.5,577.5C 371.733,590.383 347.733,602.716 323.5,614.5C 266.461,586.659 209.795,558.159 153.5,529C 152.167,528.333 152.167,527.667 153.5,527C 176.344,515.078 199.344,503.411 222.5,492C 223.793,491.51 225.127,491.343 226.5,491.5 Z"/></g>
<g><path style="opacity:1" fill="#fcfdfd" d="M 419.5,563.5 C 363.782,535.807 308.115,507.807 252.5,479.5C 251.15,478.176 251.317,477.176 253,476.5C 275.678,464.911 298.511,453.411 321.5,442C 322.833,441.333 324.167,441.333 325.5,442C 381.646,470.907 437.979,499.574 494.5,528C 470.613,540.527 446.446,552.694 422,564.5C 421.098,564.257 420.265,563.923 419.5,563.5 Z"/></g>
<g><path style="opacity:1" fill="#7479af" d="M 637.5,625.5 C 634.983,626.973 632.15,627.64 629,627.5C 626.967,627.494 625.134,627.161 623.5,626.5C 628.203,626.563 632.87,626.229 637.5,625.5 Z"/></g>
<g><path style="opacity:1" fill="#465d7f" d="M 142.5,540.5 C 142.167,609.669 142.501,678.669 143.5,747.5C 143.5,747.833 143.5,748.167 143.5,748.5C 142.167,714.173 141.5,679.506 141.5,644.5C 141.5,609.665 141.833,574.998 142.5,540.5 Z"/></g>
<g><path style="opacity:1" fill="#30388a" d="M 991.5,636.5 C 993.527,636.662 995.527,636.495 997.5,636C 994.574,635.313 993.241,633.48 993.5,630.5C 996.42,631.442 999.086,632.776 1001.5,634.5C 1001.42,633.07 1001.75,631.736 1002.5,630.5C 1005.11,629.682 1007.77,629.182 1010.5,629C 1009.06,628.623 1008.06,627.79 1007.5,626.5C 1012.79,627.342 1018.12,627.676 1023.5,627.5C 1026.23,626.055 1029.06,624.722 1032,623.5C 1037.33,625.192 1042.49,627.192 1047.5,629.5C 1042.59,637.219 1035.59,642.052 1026.5,644C 1015.71,645.666 1005.38,644.333 995.5,640C 993.907,639.051 992.574,637.885 991.5,636.5 Z"/></g>
<g><path style="opacity:1" fill="#27328d" d="M 1023.5,627.5 C 1025.7,627.41 1027.86,627.077 1030,626.5C 1030.83,626.833 1031.67,627.167 1032.5,627.5C 1024.35,631.732 1024.52,632.732 1033,630.5C 1035.93,631.717 1038.76,633.05 1041.5,634.5C 1040.01,635.244 1038.51,635.91 1037,636.5C 1035.12,634.424 1032.95,634.09 1030.5,635.5C 1031.82,636.935 1033.49,637.935 1035.5,638.5C 1033.77,640.03 1031.77,641.03 1029.5,641.5C 1027.04,639.938 1024.38,638.938 1021.5,638.5C 1018.74,639.808 1015.91,640.808 1013,641.5C 1010.27,640.638 1010.1,639.805 1012.5,639C 1011.1,637.731 1009.43,637.231 1007.5,637.5C 1007.5,635.833 1007.5,634.167 1007.5,632.5C 1012.79,630.579 1018.12,628.913 1023.5,627.5 Z"/></g>
<g><path style="opacity:1" fill="#7589aa" d="M 315.5,627.5 C 316.832,696.668 316.832,766.001 315.5,835.5C 314.893,835.376 314.56,835.043 314.5,834.5C 315.499,765.669 315.833,696.669 315.5,627.5 Z"/></g>
<g><path style="opacity:1" fill="#595e98" d="M 965.5,625.5 C 968.5,625.5 971.5,625.5 974.5,625.5C 974.5,631.5 974.5,637.5 974.5,643.5C 966.648,643.825 958.982,643.492 951.5,642.5C 958.833,642.5 966.167,642.5 973.5,642.5C 973.5,637.167 973.5,631.833 973.5,626.5C 970.615,626.806 967.948,626.473 965.5,625.5 Z"/></g>
<g><path style="opacity:1" fill="#9ea2d1" d="M 639.5,643.5 C 635.761,644.922 631.761,645.589 627.5,645.5C 624.975,645.497 622.641,645.163 620.5,644.5C 626.857,644.524 633.19,644.19 639.5,643.5 Z"/></g>
<g><path style="opacity:1" fill="#9d9fce" d="M 887.5,643.5 C 893.16,644.752 898.827,644.752 904.5,643.5C 898.818,646.103 893.151,646.103 887.5,643.5 Z"/></g>
<g><path style="opacity:1" fill="#888abd" d="M 611.5,702.5 C 606.797,702.437 602.13,702.771 597.5,703.5C 599.807,701.953 602.473,701.287 605.5,701.5C 607.696,701.505 609.696,701.838 611.5,702.5 Z"/></g>
<g><path style="opacity:1" fill="#8587bc" d="M 859.5,702.5 C 855.466,702.505 851.466,702.838 847.5,703.5C 849.462,701.983 851.795,701.316 854.5,701.5C 856.369,701.507 858.036,701.84 859.5,702.5 Z"/></g>
<g><path style="opacity:1" fill="#dde0fb" d="M 924.5,702.5 C 913.986,702.172 903.653,702.506 893.5,703.5C 892.833,704.833 892.167,706.167 891.5,707.5C 891.261,705.533 891.594,703.699 892.5,702C 903.341,701.175 914.008,701.341 924.5,702.5 Z"/></g>
<g><path style="opacity:1" fill="#5f608f" d="M 893.5,703.5 C 903.653,702.506 913.986,702.172 924.5,702.5C 924.737,703.791 924.404,704.791 923.5,705.5C 913.889,703.526 903.889,702.859 893.5,703.5 Z"/></g>
<g><path style="opacity:1" fill="#32388a" d="M 673.5,707.5 C 667.729,706.887 662.396,707.554 657.5,709.5C 654.915,722.517 652.248,735.517 649.5,748.5C 647.5,748.5 645.5,748.5 643.5,748.5C 643.5,747.5 643.5,746.5 643.5,745.5C 645.04,743.162 645.706,740.495 645.5,737.5C 647.977,727.926 649.977,718.259 651.5,708.5C 647.03,707.514 642.363,707.181 637.5,707.5C 637.5,706.167 637.5,704.833 637.5,703.5C 649.655,702.505 661.989,702.171 674.5,702.5C 674.371,704.216 674.038,705.883 673.5,707.5 Z"/></g>
<g><path style="opacity:1" fill="#8c91b8" d="M 637.5,703.5 C 637.5,704.833 637.5,706.167 637.5,707.5C 642.363,707.181 647.03,707.514 651.5,708.5C 646.5,708.5 641.5,708.5 636.5,708.5C 636.216,706.585 636.549,704.919 637.5,703.5 Z"/></g>
<g><path style="opacity:1" fill="#9296c2" d="M 673.5,707.5 C 668.268,708.21 662.935,708.877 657.5,709.5C 662.396,707.554 667.729,706.887 673.5,707.5 Z"/></g>
<g><path style="opacity:1" fill="#2a348b" d="M 154.5,704.5 C 165.167,709.833 175.833,715.167 186.5,720.5C 187.146,732.88 186.479,744.88 184.5,756.5C 173.975,751.405 163.642,746.072 153.5,740.5C 152.853,734.411 152.52,728.244 152.5,722C 152.504,715.793 153.171,709.96 154.5,704.5 Z"/></g>
<g><path style="opacity:1" fill="#6c70aa" d="M 810.5,704.5 C 811.989,708.236 812.656,712.236 812.5,716.5C 810.75,712.817 810.083,708.817 810.5,704.5 Z"/></g>
<g><path style="opacity:1" fill="#646aa7" d="M 154.5,704.5 C 153.171,709.96 152.504,715.793 152.5,722C 152.52,728.244 152.853,734.411 153.5,740.5C 151.52,728.545 150.854,716.212 151.5,703.5C 152.791,703.263 153.791,703.596 154.5,704.5 Z"/></g>
<g><path style="opacity:1" fill="#30388a" d="M 810.5,704.5 C 810.083,708.817 810.75,712.817 812.5,716.5C 813.812,724.374 815.146,732.374 816.5,740.5C 816.575,743.206 816.908,745.873 817.5,748.5C 815.167,748.5 812.833,748.5 810.5,748.5C 810.54,745.119 810.207,741.786 809.5,738.5C 802.137,738.169 794.803,738.503 787.5,739.5C 786.045,742.755 784.378,745.755 782.5,748.5C 780.265,748.795 778.265,748.461 776.5,747.5C 784.411,733.072 792.578,718.739 801,704.5C 802.473,702.993 804.307,702.326 806.5,702.5C 808.333,702.585 809.666,703.252 810.5,704.5 Z"/></g>
<g><path style="opacity:1" fill="#f3f6f9" d="M 804.5,709.5 C 806.747,717.209 808.08,725.209 808.5,733.5C 802.794,733.829 797.128,733.495 791.5,732.5C 796.098,724.968 800.432,717.302 804.5,709.5 Z"/></g>
<g><path style="opacity:1" fill="#333a8c" d="M 611.5,702.5 C 613.086,703.148 614.753,703.648 616.5,704C 617.685,705.353 619.019,706.52 620.5,707.5C 621.833,708.5 621.833,709.5 620.5,710.5C 618.902,711.485 617.235,711.651 615.5,711C 614.449,709.615 613.116,708.615 611.5,708C 607.5,707.333 603.5,707.333 599.5,708C 595.5,712 595.5,716 599.5,720C 607.106,721.64 613.939,724.806 620,729.5C 622.784,737.109 620.617,742.943 613.5,747C 603.268,751.421 594.435,749.588 587,741.5C 586.517,740.552 586.351,739.552 586.5,738.5C 588.512,737.986 590.512,737.82 592.5,738C 597.065,744.482 603.065,746.148 610.5,743C 614.207,740.24 615.207,736.74 613.5,732.5C 608.034,728.733 602.034,726.233 595.5,725C 590.309,721.072 588.476,715.905 590,709.5C 592.106,706.882 594.606,704.882 597.5,703.5C 602.13,702.771 606.797,702.437 611.5,702.5 Z"/></g>
<g><path style="opacity:1" fill="#32388b" d="M 765.5,746.5 C 764.082,748.308 762.082,748.975 759.5,748.5C 756.498,742.495 753.498,736.495 750.5,730.5C 747.914,729.52 745.247,729.187 742.5,729.5C 740.691,735.736 739.358,742.069 738.5,748.5C 735.918,748.975 733.918,748.308 732.5,746.5C 735.502,731.823 738.502,717.157 741.5,702.5C 748.841,702.334 756.174,702.5 763.5,703C 769.205,704.203 772.205,707.703 772.5,713.5C 771.851,722.816 766.851,727.816 757.5,728.5C 757.343,729.873 757.51,731.207 758,732.5C 761.291,736.748 763.791,741.415 765.5,746.5 Z"/></g>
<g><path style="opacity:1" fill="#f4f5f8" d="M 756.5,723.5 C 752.5,723.5 748.5,723.5 744.5,723.5C 744.5,722.167 744.5,720.833 744.5,719.5C 745.112,715.55 746.112,711.717 747.5,708C 753.673,706.831 759.507,707.664 765,710.5C 767.506,718.474 764.672,722.808 756.5,723.5 Z"/></g>
<g><path style="opacity:1" fill="#30388b" d="M 695.5,702.5 C 718.544,700.047 727.044,710.047 721,732.5C 714.31,747.261 703.144,752.427 687.5,748C 681.322,742.812 678.656,736.145 679.5,728C 679.107,720.119 681.773,713.452 687.5,708C 690.407,706.391 693.073,704.558 695.5,702.5 Z"/></g>
<g><path style="opacity:1" fill="#f9f9fb" d="M 697.5,707.5 C 712.841,706.11 719.007,713.11 716,728.5C 713.053,737.456 707.053,742.789 698,744.5C 689.312,743.309 685.145,738.309 685.5,729.5C 685.332,719.832 689.332,712.498 697.5,707.5 Z"/></g>
<g><path style="opacity:1" fill="#8b91c6" d="M 744.5,719.5 C 744.5,720.833 744.5,722.167 744.5,723.5C 748.5,723.5 752.5,723.5 756.5,723.5C 752.366,724.485 748.032,724.818 743.5,724.5C 743.216,722.585 743.549,720.919 744.5,719.5 Z"/></g>
<g><path style="opacity:1" fill="#2e3789" d="M 893.5,703.5 C 903.889,702.859 913.889,703.526 923.5,705.5C 915.56,707.308 907.227,708.141 898.5,708C 897.269,712.76 896.269,717.593 895.5,722.5C 901.537,722.171 907.537,722.504 913.5,723.5C 912.754,724.736 912.421,726.07 912.5,727.5C 906.167,727.5 899.833,727.5 893.5,727.5C 892.617,732.132 891.95,736.798 891.5,741.5C 890.957,741.56 890.624,741.893 890.5,742.5C 898.472,743.498 906.472,743.831 914.5,743.5C 915.494,744.999 915.494,746.666 914.5,748.5C 904.145,748.832 893.812,748.499 883.5,747.5C 884.246,746.264 884.579,744.93 884.5,743.5C 887.343,731.616 889.677,719.616 891.5,707.5C 892.167,706.167 892.833,704.833 893.5,703.5 Z"/></g>
<g><path style="opacity:1" fill="#9399c8" d="M 186.5,720.5 C 187.495,732.655 187.829,744.989 187.5,757.5C 186.209,757.737 185.209,757.404 184.5,756.5C 186.479,744.88 187.146,732.88 186.5,720.5 Z"/></g>
<g><path style="opacity:1" fill="#2f378a" d="M 859.5,702.5 C 865.762,702.769 870.096,705.769 872.5,711.5C 871.135,712.456 869.635,713.122 868,713.5C 863.106,707.88 856.94,706.047 849.5,708C 843.157,712.171 839.49,718.005 838.5,725.5C 837.357,728.976 837.19,732.642 838,736.5C 838.2,738.32 839.034,739.653 840.5,740.5C 844.693,744.372 849.693,745.539 855.5,744C 860.947,741.054 864.281,736.554 865.5,730.5C 861.167,730.5 856.833,730.5 852.5,730.5C 852.5,728.833 852.5,727.167 852.5,725.5C 859.2,725.17 865.866,725.503 872.5,726.5C 870.493,733.047 868.993,739.713 868,746.5C 866.951,748.107 865.451,748.773 863.5,748.5C 863.66,746.801 863.494,745.134 863,743.5C 855.686,749.854 847.519,751.02 838.5,747C 833.437,742.483 831.104,736.816 831.5,730C 831.123,717.568 836.456,708.735 847.5,703.5C 851.466,702.838 855.466,702.505 859.5,702.5 Z"/></g>
<g><path style="opacity:1" fill="#7c82b1" d="M 838.5,725.5 C 838.182,730.659 838.848,735.659 840.5,740.5C 839.034,739.653 838.2,738.32 838,736.5C 837.19,732.642 837.357,728.976 838.5,725.5 Z"/></g>
<g><path style="opacity:1" fill="#c4cbe7" d="M 891.5,741.5 C 899.167,742.167 906.833,742.833 914.5,743.5C 906.472,743.831 898.472,743.498 890.5,742.5C 890.624,741.893 890.957,741.56 891.5,741.5 Z"/></g>
<g><path style="opacity:1" fill="#9298ce" d="M 645.5,737.5 C 645.706,740.495 645.04,743.162 643.5,745.5C 643.565,742.572 644.232,739.905 645.5,737.5 Z"/></g>
<g><path style="opacity:1" fill="#c7c8e9" d="M 816.5,740.5 C 817.913,743.219 818.58,746.219 818.5,749.5C 815.615,749.806 812.948,749.473 810.5,748.5C 812.833,748.5 815.167,748.5 817.5,748.5C 816.908,745.873 816.575,743.206 816.5,740.5 Z"/></g>
<g><path style="opacity:1" fill="#abafd0" d="M 732.5,746.5 C 733.918,748.308 735.918,748.975 738.5,748.5C 736.393,749.468 734.059,749.802 731.5,749.5C 731.263,748.209 731.596,747.209 732.5,746.5 Z"/></g>
<g><path style="opacity:1" fill="#a1a3c9" d="M 765.5,746.5 C 766.404,747.209 766.737,748.209 766.5,749.5C 763.941,749.802 761.607,749.468 759.5,748.5C 762.082,748.975 764.082,748.308 765.5,746.5 Z"/></g>
<g><path style="opacity:1" fill="#a3a8cc" d="M 776.5,747.5 C 778.265,748.461 780.265,748.795 782.5,748.5C 780.307,749.797 777.973,749.797 775.5,748.5C 775.624,747.893 775.957,747.56 776.5,747.5 Z"/></g>
<g><path style="opacity:1" fill="#aaace0" d="M 884.5,743.5 C 884.579,744.93 884.246,746.264 883.5,747.5C 893.812,748.499 904.145,748.832 914.5,748.5C 904.013,749.494 893.346,749.828 882.5,749.5C 882.259,747.102 882.926,745.102 884.5,743.5 Z"/></g>
<g><path style="opacity:1" fill="#9aa8c1" d="M 483.5,774.5 C 481.967,776.245 479.967,777.245 477.5,777.5C 477.5,777.167 477.5,776.833 477.5,776.5C 479.421,775.637 481.421,774.971 483.5,774.5 Z"/></g>
<g><path style="opacity:1" fill="#495f7f" d="M 477.5,776.5 C 477.5,776.833 477.5,777.167 477.5,777.5C 472.884,779.745 468.217,782.078 463.5,784.5C 466.968,779.784 471.635,777.117 477.5,776.5 Z"/></g>
<g><path style="opacity:1" fill="#4a6387" d="M 220.5,803.5 C 225.567,804.723 230.567,806.223 235.5,808C 235.167,808.333 234.833,808.667 234.5,809C 236.119,809.236 237.119,810.069 237.5,811.5C 231.654,809.076 225.988,806.409 220.5,803.5 Z"/></g>
</svg>
